<svg width="21" height="21" viewBox="0 0 21 21" fill="none" xmlns="http://www.w3.org/2000/svg">
<g id="chart-line-svgrepo-com">
<path id="Path" d="M1 21C0.735853 20.9967 0.483507 20.8951 0.296707 20.7168C0.10992 20.5385 0.00345333 20.2976 0 20.0455V0.954545C0 0.701387 0.10536 0.458589 0.292893 0.27958C0.480427 0.100571 0.734787 0 1 0C1.26521 0 1.51957 0.100571 1.70711 0.27958C1.89464 0.458589 2 0.701387 2 0.954545V20.0455C1.99655 20.2976 1.89008 20.5385 1.70329 20.7168C1.51649 20.8951 1.26415 20.9967 1 21Z" fill="black"/>
<path id="Path_2" d="M20.0455 21H0.954545C0.701387 21 0.458589 20.8947 0.27958 20.7071C0.100571 20.5196 0 20.2652 0 20C0 19.7348 0.100571 19.4804 0.27958 19.2929C0.458589 19.1053 0.701387 19 0.954545 19H20.0455C20.2986 19 20.5414 19.1053 20.7204 19.2929C20.8995 19.4804 21 19.7348 21 20C21 20.2652 20.8995 20.5196 20.7204 20.7071C20.5414 20.8947 20.2986 21 20.0455 21Z" fill="black"/>
<path id="Path_3" d="M12.8086 14C12.6797 14.0005 12.5518 13.976 12.4328 13.9277C12.3137 13.8796 12.2056 13.8086 12.115 13.719L8.88278 10.5647L5.65054 13.719C5.46448 13.8881 5.21841 13.9803 4.96415 13.9759C4.70989 13.9715 4.46728 13.871 4.28747 13.6955C4.10764 13.5201 4.00464 13.2833 4.00015 13.0352C3.99568 12.787 4.09005 12.5468 4.26342 12.3654L8.18922 8.53417C8.37321 8.35474 8.62263 8.25398 8.88278 8.25398C9.1428 8.25398 9.39235 8.35474 9.57634 8.53417L12.8086 11.6885L17.3494 7.25707C17.5355 7.08788 17.7815 6.99578 18.0358 7.00015C18.2901 7.00453 18.5327 7.10505 18.7125 7.28054C18.8923 7.45602 18.9953 7.69278 18.9998 7.94085C19.0043 8.18898 18.9099 8.42919 18.7366 8.61079L13.5021 13.719C13.4116 13.8086 13.3035 13.8796 13.1844 13.9277C13.0653 13.976 12.9375 14.0005 12.8086 14Z" fill="black"/>
<path id="Path_4" d="M18.95 13C18.6727 12.9964 18.4076 12.8867 18.2115 12.694C18.0154 12.5013 17.9036 12.241 17.9 11.9686V8.06287H14.05C13.7715 8.06287 13.5044 7.95422 13.3076 7.76073C13.1106 7.56734 13 7.30498 13 7.03143C13 6.75788 13.1106 6.49553 13.3076 6.3021C13.5044 6.10867 13.7715 6 14.05 6H18.95C19.2273 6.00356 19.4924 6.11338 19.6885 6.30603C19.8846 6.49871 19.9964 6.75898 20 7.03143V11.9686C19.9964 12.241 19.8846 12.5013 19.6885 12.694C19.4924 12.8867 19.2273 12.9964 18.95 13Z" fill="black"/>
</g>
</svg>
