<svg width="15" height="21" viewBox="0 0 15 21" fill="none" xmlns="http://www.w3.org/2000/svg">
<g id="quality-supervision-svgrepo-com">
<path id="Shape" fill-rule="evenodd" clip-rule="evenodd" d="M7.49998 0C3.36448 0 0 3.3956 0 7.56938C0 11.7432 3.36448 15.1387 7.49998 15.1387C11.6355 15.1387 15 11.7431 15 7.56934C15 3.39555 11.6355 0 7.49998 0ZM2.57684 14.8429V19.546L4.11502 18.8998V15.692C3.57534 15.4618 3.06001 15.1774 2.57684 14.8429ZM10.885 15.692V18.9322L12.4232 19.5783V14.8429C11.94 15.1774 11.4247 15.4618 10.885 15.692ZM5.3462 16.1098C6.05011 16.2905 6.77364 16.3817 7.49998 16.3813C8.22631 16.3817 8.94985 16.2905 9.65376 16.1098V21L7.49998 20.0953L5.3462 21V16.1098ZM1.55414 7.53841C1.55414 10.8473 4.22145 13.5392 7.49998 13.5392C10.7785 13.5392 13.4458 10.8473 13.4458 7.53841C13.4458 4.22952 10.7785 1.53755 7.49998 1.53755C4.22145 1.53755 1.55414 4.22952 1.55414 7.53841ZM7.49998 2.78012C4.90034 2.78012 2.78532 4.91465 2.78532 7.53841C2.78532 10.1622 4.90034 12.2966 7.49998 12.2966C10.0996 12.2966 12.2146 10.1621 12.2146 7.53837C12.2146 4.91465 10.0997 2.78012 7.49998 2.78012ZM7.49998 9.28727L9.43772 10.3154L9.06766 8.13781L10.6353 6.59563L8.46883 6.27788L7.49998 4.29658L6.53117 6.27788L4.36471 6.59563L5.93234 8.13781L5.56228 10.3154L7.49998 9.28727Z" fill="black"/>
</g>
</svg>
