<svg width="21" height="21" viewBox="0 0 21 21" fill="none" xmlns="http://www.w3.org/2000/svg">
<g id="collaboration-picture-visualize-person-svgrepo-com">
<path id="Path" d="M18.5484 8.04994C18.5148 8.03329 18.4225 8.03329 18.389 8.01665C18.3554 8 18.2296 8 18.1709 8C17.8102 8 17.5502 8.14149 17.4076 8.39117L15.4951 11.5205L13.0877 11.5621C12.6935 11.5621 12.358 11.8784 12.358 12.2862C12.358 12.3944 12.3831 12.4942 12.4251 12.5858H8.56655C8.60849 12.4942 8.63366 12.3944 8.63366 12.2862C8.63366 11.8784 8.29813 11.5621 7.90389 11.5621H5.49652L3.58404 8.39117C3.44144 8.14149 3.17302 8 2.82072 8C2.7704 8 2.64457 8 2.60263 8.01665C2.56908 8.03329 2.47681 8.03329 2.44326 8.04994C-0.00605607 8.60755 -0.014444 13.7926 0.0023321 14.783C0.0023321 15.6901 0.321079 16.0896 0.983736 16.3393C1.14311 16.4142 1.34442 16.4475 1.5038 16.4475H5.71461V20.0595C5.71461 20.5922 6.12562 21 6.66246 21C7.1993 21 7.61031 20.5922 7.61031 20.0595V15.5403C7.61031 15.2907 7.50127 15.0243 7.32512 14.8662C7.13219 14.6748 6.88055 14.5666 6.64568 14.5666H3.83568V12.4776L2.37616 10.0141C2.30066 9.90589 2.3426 9.78105 2.42648 9.73111C2.53553 9.65621 2.66135 9.69782 2.71168 9.78105L4.40607 12.6357C4.41446 12.6524 4.43123 12.669 4.43962 12.694V14.0006H16.552V12.694C16.5688 12.6773 16.5772 12.6607 16.5855 12.6357L18.2799 9.78105C18.3303 9.6895 18.4561 9.65621 18.5651 9.73111C18.6574 9.78105 18.691 9.90589 18.6155 10.0141L17.1559 12.4776V14.5666H14.3543C14.1195 14.5666 13.8762 14.6748 13.6749 14.8662C13.4987 15.0243 13.3897 15.2907 13.3897 15.5403V20.0595C13.3897 20.5922 13.8007 21 14.3375 21C14.8744 21 15.2854 20.5922 15.2854 20.0595V16.4475H19.4962C19.6556 16.4475 19.8569 16.4142 20.0163 16.3393C20.6789 16.0896 20.9977 15.6901 20.9977 14.783C21.0144 13.8009 21.0061 8.60755 18.5484 8.04994Z" fill="black"/>
<circle id="Oval" cx="16.9198" cy="5.97682" r="1.71395" transform="rotate(-67.4996 16.9198 5.97682)" fill="black"/>
<circle id="Oval_2" cx="4.31177" cy="5.97762" r="1.71395" transform="rotate(-67.4996 4.31177 5.97762)" fill="black"/>
<path id="Path_2" d="M10.0382 5.9441V6H10.8513H11.1344H11.9474V5.9441C11.9474 5.34788 12.1289 4.77029 12.4556 4.33244C12.7895 3.87595 13 3.25178 13 2.57171C13 1.13705 12.0781 -0.0274552 10.9529 0.000492768C9.85676 0.0377568 8.98566 1.21157 9.00018 2.60897C9.00744 3.27041 9.2107 3.87595 9.54462 4.32312C9.84951 4.77029 10.0382 5.33856 10.0382 5.9441Z" fill="black"/>
<rect id="Rectangle" x="10" y="6" width="2" height="1" fill="black"/>
<path id="Path_3" d="M10.5655 7H11.424C11.7392 7 12 6.63636 12 6.19697V6H10.0003V6.19697C9.98946 6.63636 10.2503 7 10.5655 7Z" fill="black"/>
</g>
</svg>
